<?xml version="1.0" encoding="UTF-8"?>
<svg id="Capa_2" data-name="Capa 2" xmlns="http://www.w3.org/2000/svg" viewBox="0 0 85.5 58.64">
  <defs>
    <style>
      .cls-1 {
      fill: #fff;
      stroke-width: 0px;
      }

      @media (prefers-color-scheme: light) {
      .cls-1 {
      fill: #000;
      }
      }
    </style>
  </defs>
  <g id="Capa_1-2" data-name="Capa 1">
    <path class="cls-1"
      d="M78.07,0l-.08,10.83c-4.13,18.27-11.85,44.64-22.82,44.64-3.86,0-7.31-3.22-10.35-8.18,2.83-4.67,5.55-10.76,8.15-18.27,4.68-13.51,7.39-27.56,7.68-29.02h-7.38l-.08,10.6c-2.34,10.38-5.84,23.69-10.45,32.93-4.6-9.23-8.1-22.52-10.44-32.88l-.08-10.65h-7.39c.28,1.46,3,15.52,7.68,29.02,2.6,7.51,5.33,13.6,8.15,18.27-3.04,4.96-6.49,8.18-10.35,8.18-11.01,0-18.74-26.55-22.86-44.83l-.08-10.64H0c.28,1.46,3,15.52,7.68,29.02,6.81,19.65,14.43,29.62,22.65,29.62,4.32,0,8.47-2.75,12.42-8.21,3.96,5.46,8.11,8.21,12.42,8.21,8.22,0,15.84-9.97,22.65-29.62,4.68-13.51,7.39-27.56,7.68-29.02h-7.43Z" />
  </g>


</svg>