<?xml version="1.0" encoding="UTF-8"?>
<svg id="Capa_2" data-name="Capa 2" xmlns="http://www.w3.org/2000/svg" viewBox="0 0 214.23 49.99">
  <defs>
    <style>
      .cls-1 {
      fill: #faffff;
      stroke-width: 0px;
      }
    </style>
  </defs>
  <g id="Capa_1-2" data-name="Capa 1">
    <g>
      <polygon class="cls-1"
        points="93.95 49.08 89.83 49.08 89.83 6.25 88.69 0 92.35 0 92.35 42.83 93.95 49.08" />
      <polygon class="cls-1"
        points="175.24 49.08 171.12 49.08 171.12 22.65 169.97 16.4 173.64 16.4 173.64 42.83 175.24 49.08" />
      <polygon class="cls-1"
        points="102.56 49.08 98.44 49.08 98.44 6.25 97.29 0 100.96 0 100.96 42.83 102.56 49.08" />
      <path class="cls-1"
        d="M79.68,39.86c-4.15,6.63-9.19,7.85-13.82,7.85-5.8,0-13.14-4.7-13.61-13.86h32.2s-.17-2.88-.17-3.18c0-8.41-7.63-15.45-17.4-15.45s-17.4,7.76-17.4,17.66c0,10.51,8.44,16.87,16.39,16.87,5.32,0,12.6-1.73,17.32-9.89h-3.5ZM66.65,17.27c8.9,0,14.65,6.82,14.65,15h-29.06c.42-8.48,6.97-15,14.4-15Z" />
      <path class="cls-1"
        d="M209.46,39.86c-4.15,6.63-9.19,7.85-13.82,7.85-5.8,0-13.14-4.7-13.61-13.86h32.2s-.17-2.88-.17-3.18c0-8.41-7.63-15.45-17.4-15.45s-17.4,7.76-17.4,17.66c0,10.51,8.44,16.87,16.39,16.87,5.32,0,12.6-1.73,17.32-9.89h-3.5ZM196.43,17.27c8.9,0,14.65,6.82,14.65,15h-29.06c.42-8.48,6.97-15,14.4-15Z" />
      <path class="cls-1"
        d="M161.75,16.4l-.04,6.07c-.79,3.59-1.81,7.73-3.06,11.63-2.41,7.49-5.68,14.08-9.84,14.08s-7.24-6.22-9.63-13.45c-1.34-4.06-2.42-8.43-3.25-12.19l-.04-6.13h-4.45c.16.84,1.72,8.88,4.4,16.62,3.9,11.26,8.27,16.97,12.98,16.97s9.07-5.71,12.98-16.97c2.68-7.74,4.24-15.78,4.4-16.62h-4.44Z" />
      <path class="cls-1"
        d="M44.74,16.38l-.04,6.2c-2.37,10.47-6.79,25.58-13.08,25.58-2.21,0-4.19-1.84-5.93-4.69,1.62-2.67,3.18-6.16,4.67-10.47,2.68-7.74,4.24-15.79,4.4-16.63h-4.23l-.04,6.07c-1.34,5.95-3.35,13.57-5.99,18.87-2.64-5.29-4.64-12.9-5.98-18.84l-.04-6.1h-4.23c.16.84,1.72,8.89,4.4,16.63,1.49,4.3,3.05,7.8,4.67,10.47-1.74,2.84-3.72,4.69-5.93,4.69-6.31,0-10.74-15.21-13.1-25.69l-.04-6.1H0c.16.84,1.72,8.89,4.4,16.63,3.9,11.26,8.27,16.97,12.98,16.97,2.47,0,4.85-1.58,7.12-4.71,2.27,3.13,4.65,4.71,7.12,4.71,4.71,0,9.07-5.71,12.98-16.97,2.68-7.74,4.24-15.79,4.4-16.63h-4.26Z" />
      <path class="cls-1"
        d="M117.8,37.21c-5.6,0-8.62-2.99-8.74-3.11-.35-.36-.35-.93.01-1.29.36-.35.94-.35,1.29.01.04.04,2.66,2.57,7.44,2.57s7.42-2.55,7.44-2.58c.36-.35.94-.35,1.29,0,.36.35.36.93,0,1.28-.13.13-3.19,3.11-8.74,3.11Z" />
    </g>
  </g>
</svg>